<svg width="33" height="32" viewBox="0 0 33 32" fill="none" xmlns="http://www.w3.org/2000/svg">
<path fill-rule="evenodd" clip-rule="evenodd" d="M17.9926 18.8C18.2324 19.104 18.5202 19.448 18.5202 19.448C20.2867 19.392 20.9661 18.232 20.9661 18.232C20.9661 15.656 19.8151 13.568 19.8151 13.568C18.6641 12.704 17.569 12.728 17.569 12.728L17.4571 12.856C18.8159 13.272 19.4474 13.872 19.4474 13.872C18.6161 13.416 17.8008 13.192 17.0414 13.104C16.4659 13.04 15.9144 13.056 15.4268 13.12C15.3849 13.12 15.3492 13.1261 15.3088 13.133L15.2909 13.136C15.0112 13.16 14.3317 13.264 13.4765 13.64C13.1807 13.776 13.0049 13.872 13.0049 13.872C13.0049 13.872 13.6683 13.24 15.1071 12.824L15.0271 12.728C15.0271 12.728 13.9321 12.704 12.781 13.568C12.781 13.568 11.63 15.656 11.63 18.232C11.63 18.232 12.3015 19.392 14.068 19.448C14.068 19.448 14.3637 19.088 14.6035 18.784C13.5884 18.48 13.2047 17.84 13.2047 17.84C13.2047 17.84 13.2846 17.896 13.4285 17.976C13.4365 17.984 13.4445 17.992 13.4605 18C13.4725 18.008 13.4845 18.014 13.4964 18.02C13.5084 18.026 13.5204 18.032 13.5324 18.04C13.7322 18.152 13.9321 18.24 14.1159 18.312C14.4436 18.44 14.8353 18.568 15.2909 18.656C15.8904 18.768 16.5938 18.808 17.3612 18.664C17.7368 18.6 18.1205 18.488 18.5202 18.32C18.7999 18.216 19.1117 18.064 19.4394 17.848C19.4394 17.848 19.0397 18.504 17.9926 18.8ZM13.988 16.6C13.988 16.112 14.3477 15.712 14.8033 15.712C15.2589 15.712 15.6266 16.112 15.6186 16.6C15.6186 17.088 15.2589 17.488 14.8033 17.488C14.3557 17.488 13.988 17.088 13.988 16.6ZM16.9055 16.6C16.9055 16.112 17.2652 15.712 17.7209 15.712C18.1765 15.712 18.5362 16.112 18.5362 16.6C18.5362 17.088 18.1765 17.488 17.7209 17.488C17.2732 17.488 16.9055 17.088 16.9055 16.6Z" fill="#ECE8E1"/>
<path fill-rule="evenodd" clip-rule="evenodd" d="M27.2408 0C29.9999 0 32.2365 2.23858 32.2365 5V27C32.2365 29.7614 29.9999 32 27.2408 32H5.25943C2.50035 32 0.263672 29.7614 0.263672 27V5C0.263672 2.23858 2.50035 0 5.25943 0H27.2408ZM10.8946 9H21.6056C22.5088 9 23.2442 9.736 23.2442 10.648V25L21.5256 23.48L20.5584 22.584L19.5353 21.632L19.959 23.112H10.8946C9.99141 23.112 9.25604 22.376 9.25604 21.464V10.648C9.25604 9.736 9.99141 9 10.8946 9Z" fill="#ECE8E1"/>
</svg>
