<svg width="1924" height="1432" viewBox="0 0 1924 1432" fill="none" xmlns="http://www.w3.org/2000/svg">
<rect y="0.000488281" width="1924" height="1431.64" fill="#ECE8E1"/>
<path d="M505 1377.11H519V1396.19H505V1377.11Z" fill="#DC3D4B"/>
<path d="M1631 459.49H1645V478.579H1631V459.49Z" fill="#768079"/>
<path d="M1270 1373.02H1284V1392.1H1270V1373.02Z" fill="#768079"/>
<path d="M1015 1119.41H1029V1138.5H1015V1119.41Z" fill="#DC3D4B"/>
<rect x="1056" y="57.2662" width="14" height="19.0886" fill="#DC3D4B"/>
<rect x="190" y="309.508" width="14" height="19.0886" fill="#DC3D4B"/>
<rect x="1638" y="740.365" width="14" height="19.0886" fill="#DC3D4B"/>
<rect x="1544" y="1371.65" width="8" height="10.9078" fill="#DC3D4B"/>
<path d="M0 1277.57L374.5 1431.64H0.5L0 1277.57Z" fill="#212932"/>
<rect x="225" y="698.097" width="8" height="10.9078" fill="#DC3D4B"/>
<rect x="950" y="687.19" width="8" height="10.9078" fill="#DC3D4B"/>
<rect x="1749" y="170.434" width="8" height="10.9078" fill="#DC3D4B"/>
<rect x="273" y="58.6296" width="8" height="10.9078" fill="#768079"/>
<rect x="686" y="1250.3" width="8" height="10.9078" fill="#768079"/>
<rect x="129" y="559.023" width="8" height="10.9078" fill="#768079"/>
<rect x="87" y="1420.74" width="8" height="10.9078" fill="#768079"/>
</svg>
