<svg width="324" height="92" viewBox="0 0 324 92" fill="none" xmlns="http://www.w3.org/2000/svg">
<path d="M2 1H1V2V22.9846V23.9846H2V58.5385H1V59.5385V63.6V64.6H2V68.0154H1V69.0154V90V91H2H40.1538H41.1538V90H105.615V91H106.615H114H115V90H122.846V91H123.846H200.154H201.154V90H265.615V91H266.615H274H275V90H282.846V91H283.846H322H323V90V69.0154V68.0154H322V33.4615H323V32.4615V28.4V27.4H322V23.9846H323V22.9846V2V1H322H283.846H282.846V2H218.385V1H217.385H210H209V2H201.154V1H200.154H123.846H122.846V2H58.3846V1H57.3846H50H49V2H41.1538V1H40.1538H2Z" stroke="#ECE8E1" stroke-width="2" stroke-linecap="square" stroke-dasharray="62 54 6 8"/>
</svg>
