<svg width="28" height="28" viewBox="0 0 28 28" fill="none" xmlns="http://www.w3.org/2000/svg">
<path d="M27.2617 25.3784L18.3853 16.502C19.7627 14.7212 20.5078 12.5439 20.5078 10.2539C20.5078 7.5127 19.438 4.94238 17.5034 3.00439C15.5688 1.06641 12.9917 0 10.2539 0C7.51611 0 4.93896 1.06982 3.00439 3.00439C1.06641 4.93896 0 7.5127 0 10.2539C0 12.9917 1.06982 15.5688 3.00439 17.5034C4.93896 19.4414 7.5127 20.5078 10.2539 20.5078C12.5439 20.5078 14.7178 19.7627 16.4985 18.3887L25.375 27.2617C25.401 27.2878 25.4319 27.3084 25.4659 27.3225C25.5 27.3366 25.5364 27.3439 25.5732 27.3439C25.6101 27.3439 25.6465 27.3366 25.6805 27.3225C25.7146 27.3084 25.7455 27.2878 25.7715 27.2617L27.2617 25.7749C27.2878 25.7489 27.3084 25.718 27.3225 25.684C27.3366 25.6499 27.3439 25.6135 27.3439 25.5767C27.3439 25.5398 27.3366 25.5034 27.3225 25.4694C27.3084 25.4354 27.2878 25.4044 27.2617 25.3784V25.3784ZM15.668 15.668C14.2188 17.1138 12.2979 17.9102 10.2539 17.9102C8.20996 17.9102 6.28906 17.1138 4.83984 15.668C3.39404 14.2188 2.59766 12.2979 2.59766 10.2539C2.59766 8.20996 3.39404 6.28564 4.83984 4.83984C6.28906 3.39404 8.20996 2.59766 10.2539 2.59766C12.2979 2.59766 14.2222 3.39063 15.668 4.83984C17.1138 6.28906 17.9102 8.20996 17.9102 10.2539C17.9102 12.2979 17.1138 14.2222 15.668 15.668Z" fill="#ECE8E1"/>
</svg>
