<svg width="15" height="36" viewBox="0 0 15 36" fill="none" xmlns="http://www.w3.org/2000/svg">
<mask id="path-1-outside-1_1_277" maskUnits="userSpaceOnUse" x="0" y="-1" width="15" height="37" fill="black">
<rect fill="white" y="-1" width="15" height="37"/>
<path d="M12.6818 2L2 17.7144L12.6818 33.4288"/>
</mask>
<path d="M14.3358 3.12433C14.9568 2.21082 14.7196 0.966899 13.8061 0.345949C12.8926 -0.275001 11.6487 -0.0378363 11.0277 0.875671L14.3358 3.12433ZM2 17.7144L0.345949 16.5901C-0.115316 17.2687 -0.115316 18.1602 0.345949 18.8387L2 17.7144ZM11.0277 34.5532C11.6487 35.4667 12.8926 35.7038 13.8061 35.0829C14.7196 34.4619 14.9568 33.218 14.3358 32.3045L11.0277 34.5532ZM11.0277 0.875671L0.345949 16.5901L3.65405 18.8387L14.3358 3.12433L11.0277 0.875671ZM0.345949 18.8387L11.0277 34.5532L14.3358 32.3045L3.65405 16.5901L0.345949 18.8387Z" fill="#ECE8E1" mask="url(#path-1-outside-1_1_277)"/>
</svg>
