<svg width="15" height="36" viewBox="0 0 15 36" fill="none" xmlns="http://www.w3.org/2000/svg">
<mask id="path-1-outside-1_1_278" maskUnits="userSpaceOnUse" x="-1" y="-1" width="16" height="37" fill="black">
<rect fill="white" x="-1" y="-1" width="16" height="37"/>
<path d="M2 2L12.6818 17.7144L2 33.4288"/>
</mask>
<path d="M3.65405 0.875671C3.0331 -0.0378363 1.78918 -0.275001 0.875671 0.345949C-0.0378363 0.9669 -0.275001 2.21082 0.345949 3.12433L3.65405 0.875671ZM12.6818 17.7144L14.3358 18.8387C14.7971 18.1602 14.7971 17.2687 14.3358 16.5901L12.6818 17.7144ZM0.345949 32.3045C-0.275001 33.218 -0.0378363 34.4619 0.875671 35.0829C1.78918 35.7038 3.0331 35.4667 3.65405 34.5532L0.345949 32.3045ZM0.345949 3.12433L11.0277 18.8387L14.3358 16.5901L3.65405 0.875671L0.345949 3.12433ZM11.0277 16.5901L0.345949 32.3045L3.65405 34.5532L14.3358 18.8387L11.0277 16.5901Z" fill="#ECE8E1" mask="url(#path-1-outside-1_1_278)"/>
</svg>
