<svg width="33" height="32" viewBox="0 0 33 32" fill="none" xmlns="http://www.w3.org/2000/svg">
<path fill-rule="evenodd" clip-rule="evenodd" d="M5.0856 0H27.0669C29.826 0 32.0627 2.23858 32.0627 5V27C32.0627 29.7614 29.826 32 27.0669 32H5.0856C2.32652 32 0.0898438 29.7614 0.0898438 27V5C0.0898438 2.23858 2.32652 0 5.0856 0ZM16.7675 12.0074C15.3358 12.6034 12.4742 13.8371 8.18289 15.7083C7.48605 15.9856 7.12101 16.257 7.08778 16.5223C7.03162 16.9706 7.59262 17.1472 8.35656 17.3876C8.46048 17.4203 8.56815 17.4542 8.67853 17.4901C9.43014 17.7346 10.4412 18.0207 10.9668 18.0321C11.4435 18.0424 11.9757 17.8457 12.5631 17.4419C16.5727 14.7331 18.6424 13.3639 18.7723 13.3344C18.864 13.3136 18.991 13.2874 19.0771 13.3639C19.1632 13.4405 19.1547 13.5855 19.1456 13.6244C19.09 13.8615 16.8879 15.9106 15.7483 16.971C15.393 17.3015 15.141 17.536 15.0895 17.5896C14.9741 17.7096 14.8565 17.823 14.7434 17.9321C14.0452 18.6058 13.5215 19.111 14.7724 19.936C15.3735 20.3325 15.8545 20.6603 16.3344 20.9874C16.8585 21.3446 17.3812 21.7009 18.0575 22.1446C18.2298 22.2576 18.3944 22.375 18.5547 22.4894C19.1646 22.9246 19.7125 23.3155 20.3895 23.2532C20.7828 23.217 21.1891 22.8468 21.3955 21.7427C21.8831 19.1335 22.8417 13.4801 23.0632 11.1505C23.0826 10.9464 23.0582 10.6851 23.0386 10.5705C23.019 10.4558 22.978 10.2924 22.8291 10.1715C22.6527 10.0283 22.3805 9.99805 22.2587 10.0001C21.705 10.01 20.8556 10.3056 16.7675 12.0074Z" fill="#ECE8E1"/>
</svg>
