<svg width="32" height="32" viewBox="0 0 32 32" fill="none" xmlns="http://www.w3.org/2000/svg">
<path fill-rule="evenodd" clip-rule="evenodd" d="M21.7164 16.8567L19.4307 19.1424H17.145L15.145 21.1424V19.1424H12.5736V10.571H21.7164V16.8567ZM20.0022 12.571H18.8593V15.9996H20.0022V12.571ZM15.7164 12.571H16.8593V15.9996H15.7164V12.571Z" fill="#ECE8E1"/>
<path fill-rule="evenodd" clip-rule="evenodd" d="M27 0C29.7614 0 32 2.23858 32 5V27C32 29.7614 29.7614 32 27 32H5C2.23858 32 0 29.7614 0 27V5C0 2.23858 2.23858 0 5 0H27ZM12.0022 9.42812L9.14502 12.2853V22.571H12.5736V25.4281L15.4307 22.571H17.7164L22.8593 17.4281V9.42812H12.0022Z" fill="#ECE8E1"/>
</svg>
