<svg width="33" height="32" viewBox="0 0 33 32" fill="none" xmlns="http://www.w3.org/2000/svg">
<path fill-rule="evenodd" clip-rule="evenodd" d="M0.175781 5C0.175781 2.23858 2.41246 0 5.17154 0H27.1529C29.912 0 32.1486 2.23858 32.1486 5V27C32.1486 29.7614 29.912 32 27.1529 32H5.17154C2.41246 32 0.175781 29.7614 0.175781 27V5ZM9.28805 9.12C8.169 10.2507 8.169 12.0587 8.169 15.68V16.32C8.169 19.936 8.169 21.744 9.28805 22.88C10.4178 24 12.2242 24 15.8425 24H16.4819C20.0949 24 21.9013 24 23.0364 22.88C24.1554 21.7493 24.1554 19.9413 24.1554 16.32V15.68C24.1554 12.064 24.1554 10.256 23.0364 9.12C21.9067 8 20.1002 8 16.4819 8H15.8425C12.2295 8 10.4231 8 9.28805 9.12Z" fill="#ECE8E1"/>
<path d="M16.6738 19.5253C13.0289 19.5253 10.9506 17.0293 10.8654 12.8693H12.6985C12.7571 15.92 14.1 17.2106 15.1657 17.4773V12.8693H16.8869V15.4986C17.9367 15.3867 19.0451 14.1866 19.4181 12.864H21.134C20.9941 13.5487 20.7146 14.1971 20.313 14.7688C19.9114 15.3405 19.3963 15.8232 18.8 16.1866C19.4655 16.5182 20.0533 16.9872 20.5245 17.5626C20.9957 18.1381 21.3396 18.8071 21.5337 19.5253H19.6419C19.2369 18.2613 18.2245 17.28 16.8869 17.1467V19.5253H16.6738Z" fill="#ECE8E1"/>
</svg>
